<?xml version="1.0" encoding="UTF-8" standalone="no"?>
<!DOCTYPE svg PUBLIC "-//W3C//DTD SVG 1.1//EN" "http://www.w3.org/Graphics/SVG/1.1/DTD/svg11.dtd">
<svg width="100%" height="100%" viewBox="0 0 313 295" version="1.1" xmlns="http://www.w3.org/2000/svg" xmlns:xlink="http://www.w3.org/1999/xlink" xml:space="preserve" xmlns:serif="http://www.serif.com/" style="fill-rule:evenodd;clip-rule:evenodd;stroke-linecap:round;stroke-linejoin:round;stroke-miterlimit:1.5;">
    <g id="Layer_1-2">
        <path d="M313,208.48L313,20C313,8.95 304.05,0 293,0L20,0C8.95,0 0,8.95 0,20L0,208.48L313,208.48Z" style="fill:rgb(103,234,148);fill-rule:nonzero;"/>
        <g transform="matrix(1,0,0,1,-1.07939,5.36189)">
            <path d="M206.714,141.202L66.607,141.202L66.607,57.77L123.282,126.365L123.282,56.554L193.093,56.554L214.985,83.067" style="fill:none;stroke:black;stroke-width:10px;"/>
            <path d="M156.5,56.554L156.5,126.121" style="fill:none;stroke:black;stroke-width:10px;"/>
            <path d="M192.85,126.121L248.552,56.554" style="fill:none;stroke:black;stroke-width:10px;"/>
            <path d="M228.12,98.878L248.552,126.121" style="fill:none;stroke:black;stroke-width:10px;"/>
        </g>
        <path d="M0,208.48L313,208.48L313,274.81C313,285.85 304.04,294.81 293,294.81L20,294.81C8.96,294.81 0,285.85 0,274.81L0,208.48Z" style="fill-rule:nonzero;"/>
        <g transform="matrix(1,0,0,1,-8.66019,1.30417)">
            <g transform="matrix(55.8419,0,0,55.8419,299.939,270)">
            </g>
            <text x="30px" y="270px" style="font-family:'Arial-BoldMT', 'Arial';font-weight:700;font-size:55.842px;fill:rgb(103,234,148);">NTX Mesh</text>
        </g>
    </g>
</svg>
